<?xml version="1.0" encoding="utf-8"?>
<!-- Generator: Adobe Illustrator 16.0.0, SVG Export Plug-In . SVG Version: 6.00 Build 0)  -->
<!DOCTYPE svg PUBLIC "-//W3C//DTD SVG 1.1//EN" "http://www.w3.org/Graphics/SVG/1.1/DTD/svg11.dtd">
<svg version="1.1" id="Livello_1" xmlns="http://www.w3.org/2000/svg" xmlns:xlink="http://www.w3.org/1999/xlink" x="0px" y="0px"
	 width="556.746px" height="66.97px" viewBox="0 0 556.746 66.97" enable-background="new 0 0 556.746 66.97" xml:space="preserve">
<g>
	<defs>
		<path id="SVGID_1_" d="M523.982,53.392v-1.94c1.16-0.125,2.092-0.957,2.797-2.5c0.456-0.97,1.104-3.108,1.95-6.416l10.694-41.819
			h1.341l10.739,40.141c1.208,4.502,2.108,7.404,2.703,8.709c0.595,1.307,1.44,1.934,2.539,1.885v1.94h-15.584v-1.94
			c1.568-0.099,2.599-0.311,3.091-0.634c0.495-0.323,0.741-1.144,0.741-2.463c0-0.597-0.126-1.504-0.377-2.723l-0.635-2.611
			l-1.225-4.626h-10.806l-1.364,5.932c-0.424,1.964-0.636,3.395-0.636,4.289c0,1.095,0.462,1.891,1.387,2.389
			c0.548,0.273,1.37,0.422,2.468,0.447v1.94 M532.674,35.375h9.378l-4.629-17.683h-0.405L532.674,35.375z M489.136,53.392v-1.94
			c1.787-0.075,2.938-0.617,3.456-1.622c0.516-1.008,0.773-2.494,0.773-4.459V9.185c-1.473-2.611-2.38-4.147-2.726-4.606
			c-0.345-0.461-0.813-0.753-1.409-0.877V1.762h10.199l16.545,31.919h0.235V11.237c0-2.586-0.296-4.433-0.888-5.54
			s-1.777-1.772-3.554-1.996V1.762h10.341v1.939c-1.505,0.396-2.51,0.928-3.02,1.594c-0.51,0.669-0.764,2.164-0.764,4.486V54.81
			h-1.34l-21.176-40.849h-0.33v29.956c0,2.35,0.204,4.011,0.611,4.986c0.644,1.575,1.959,2.423,3.948,2.549v1.94H489.136z
			 M454.477,53.392v-1.94c1.16-0.125,2.092-0.957,2.799-2.5c0.452-0.97,1.104-3.108,1.948-6.416l10.693-41.819h1.34l10.741,40.141
			c1.207,4.502,2.106,7.404,2.703,8.709c0.596,1.307,1.441,1.934,2.538,1.885v1.94h-15.581v-1.94
			c1.565-0.099,2.597-0.311,3.091-0.634c0.493-0.323,0.739-1.144,0.739-2.463c0-0.597-0.125-1.504-0.375-2.723l-0.637-2.611
			l-1.225-4.626h-10.807l-1.365,5.932c-0.422,1.964-0.634,3.395-0.634,4.289c0,1.095,0.464,1.891,1.387,2.389
			c0.548,0.273,1.372,0.422,2.467,0.447v1.94H454.477z M463.167,35.375h9.379l-4.63-17.683h-0.402L463.167,35.375z M428.536,54.473
			V35.56h1.387c0.766,5.708,2.002,9.859,3.711,12.452c1.708,2.591,3.665,3.888,5.872,3.888c2.145,0,3.668-0.891,4.572-2.67
			c0.904-1.779,1.356-3.651,1.356-5.617c0-2.291-0.472-4.157-1.415-5.601c-0.626-0.945-1.891-2.177-3.796-3.695l-3.064-2.464
			c-3.043-2.439-5.19-4.853-6.442-7.242c-1.25-2.389-1.875-5.339-1.875-8.848c0-3.734,0.829-7.217,2.484-10.454
			c1.657-3.234,4.195-4.853,7.615-4.853c1.741,0,3.424,0.422,5.05,1.269c1.627,0.846,2.555,1.269,2.786,1.269
			c0.523,0,0.885-0.243,1.085-0.728c0.199-0.485,0.363-1.126,0.486-1.921h1.433v16.637h-1.339c-0.628-3.853-1.733-7.174-3.319-9.959
			c-1.586-2.786-3.512-4.179-5.777-4.179c-1.594,0-2.853,0.704-3.78,2.11c-0.926,1.405-1.39,3.117-1.39,5.132
			c0,2.415,0.436,4.219,1.303,5.414c0.852,1.22,2.763,3.011,5.73,5.376l3.554,2.837c1.585,1.27,2.847,2.674,3.788,4.215
			c1.762,2.884,2.641,6.388,2.641,10.514c0,3.853-0.943,7.487-2.831,10.905c-1.888,3.417-4.913,5.125-9.076,5.125
			c-0.953,0-1.921-0.142-2.9-0.428c-0.979-0.286-1.945-0.728-2.901-1.325l-0.925-0.56c-0.214-0.1-0.424-0.179-0.624-0.242
			c-0.199-0.063-0.37-0.093-0.508-0.093c-0.493,0-0.833,0.23-1.019,0.689c-0.186,0.461-0.346,1.114-0.484,1.958H428.536z
			 M408.893,53.392v-1.94c1.362-0.05,2.342-0.311,2.937-0.784c0.972-0.796,1.458-2.324,1.458-4.589V9.075
			c0-2.248-0.462-3.755-1.387-4.521c-0.564-0.468-1.567-0.752-3.008-0.852V1.762h16.828v1.939c-1.505,0.1-2.54,0.37-3.104,0.815
			c-0.941,0.767-1.411,2.285-1.411,4.559V46.08c0,2.139,0.378,3.569,1.13,4.291c0.751,0.721,1.88,1.082,3.385,1.082v1.94H408.893z
			 M383.045,54.473V35.56h1.386c0.766,5.708,2.003,9.859,3.712,12.452c1.709,2.591,3.665,3.888,5.872,3.888
			c2.145,0,3.668-0.891,4.572-2.67c0.904-1.779,1.355-3.651,1.355-5.617c0-2.291-0.472-4.157-1.415-5.601
			c-0.625-0.945-1.89-2.177-3.794-3.695l-3.066-2.464c-3.043-2.439-5.19-4.853-6.44-7.242c-1.251-2.389-1.877-5.339-1.877-8.848
			c0-3.734,0.83-7.217,2.485-10.454c1.656-3.234,4.194-4.853,7.615-4.853c1.74,0,3.423,0.422,5.051,1.269
			c1.625,0.846,2.553,1.269,2.784,1.269c0.524,0,0.886-0.243,1.086-0.728c0.201-0.485,0.362-1.126,0.485-1.921h1.433v16.637h-1.338
			c-0.627-3.853-1.733-7.174-3.319-9.959c-1.586-2.786-3.512-4.179-5.778-4.179c-1.592,0-2.852,0.704-3.779,2.11
			c-0.926,1.405-1.389,3.117-1.389,5.132c0,2.415,0.434,4.219,1.302,5.414c0.853,1.22,2.764,3.011,5.731,5.376l3.553,2.837
			c1.584,1.27,2.846,2.674,3.788,4.215c1.761,2.884,2.641,6.388,2.641,10.514c0,3.853-0.943,7.487-2.832,10.905
			c-1.887,3.417-4.912,5.125-9.074,5.125c-0.954,0-1.923-0.142-2.902-0.428c-0.977-0.286-1.944-0.728-2.901-1.325l-0.924-0.56
			c-0.215-0.1-0.423-0.179-0.624-0.242c-0.2-0.063-0.37-0.093-0.508-0.093c-0.493,0-0.832,0.23-1.018,0.689
			c-0.185,0.461-0.347,1.114-0.486,1.958H383.045z M363.4,53.392v-1.94c1.363-0.05,2.343-0.311,2.938-0.784
			c0.971-0.796,1.457-2.324,1.457-4.589V9.075c0-2.248-0.462-3.755-1.386-4.521c-0.564-0.468-1.567-0.752-3.009-0.852V1.762h16.828
			v1.939c-1.505,0.1-2.537,0.37-3.104,0.815c-0.94,0.767-1.409,2.285-1.409,4.559V46.08c0,2.139,0.376,3.569,1.129,4.291
			c0.751,0.721,1.879,1.082,3.384,1.082v1.94H363.4z M328.646,1.762h16.265v1.939c-1.865,0.1-3.111,0.558-3.737,1.374
			c-0.627,0.816-0.939,2.684-0.939,5.602v25.602c0,3.888,0.291,6.89,0.869,9.007c1.05,3.937,3.063,5.906,6.04,5.906
			c3.698,0,6.196-2.179,7.497-6.535c0.721-2.39,1.082-5.739,1.082-10.046V11.237c0-2.735-0.316-4.619-0.953-5.65
			c-0.634-1.033-1.876-1.661-3.725-1.885V1.762h10.576v1.939c-1.535,0.473-2.55,1.05-3.043,1.735
			c-0.494,0.685-0.741,2.257-0.741,4.719V34.59c0,6.491-0.987,11.503-2.961,15.034c-1.975,3.532-5.075,5.297-9.308,5.297
			c-5.529,0-9.314-2.626-11.352-7.877c-1.08-2.789-1.621-6.384-1.621-10.791V10.677c0-2.868-0.238-4.674-0.716-5.417
			s-1.556-1.261-3.233-1.559V1.762z M309.101,0.606c4.857,0,8.893,2.486,12.104,7.46c3.305,5.099,4.959,11.665,4.959,19.697
			c0,8.854-1.967,15.855-5.899,21.003c-1.505,2.089-3.611,3.818-6.322,5.186c0.689,2.735,1.798,4.98,3.325,6.733
			c1.528,1.753,3.201,2.63,5.019,2.63c0.626,0,1.156-0.068,1.586-0.205c0.431-0.138,0.983-0.368,1.658-0.69l0.28,1.865
			c-1.613,1.044-3.392,1.79-5.335,2.237c-1.237,0.299-2.364,0.448-3.384,0.448c-2.711,0-5.363-1.068-7.956-3.208
			c-2.593-2.138-4.39-5.235-5.393-9.289c-0.126-0.521-0.22-0.833-0.284-0.932c-0.062-0.099-0.288-0.249-0.68-0.448
			c-2.037-1.169-3.965-3.06-5.781-5.67c-3.338-5.149-5.007-11.602-5.007-19.361c0-7.859,1.559-14.363,4.676-19.512
			C299.865,3.254,304.009,0.606,309.101,0.606z M309.089,52.347c3.609,0,6.088-3.395,7.438-10.184c0.722-3.68,1.08-8.48,1.08-14.4
			c0-8.132-0.764-14.263-2.293-18.392c-1.53-4.128-3.604-6.192-6.226-6.192c-3.64,0-6.135,3.444-7.484,10.334
			c-0.705,3.656-1.058,8.405-1.058,14.25c0,5.944,0.36,10.744,1.081,14.4C302.962,48.953,305.449,52.347,309.089,52.347z
			 M249.047,23.605c-0.929-2.51-1.583-4.56-1.961-6.15c-0.377-1.589-0.565-3.23-0.565-4.921c0-3.479,0.806-6.363,2.421-8.649
			c1.614-2.286,3.979-3.429,7.098-3.429c2.586,0,4.552,0.919,5.898,2.759c1.348,1.839,2.021,4.013,2.021,6.522
			c0,2.561-0.652,4.753-1.954,6.58c-1.305,1.825-3.072,3.372-5.304,4.642l7.284,16.325c1.331-2.738,2.205-4.679,2.623-5.823
			c0.672-1.817,1.01-3.498,1.01-5.039c0-1.269-0.188-2.078-0.565-2.426c-0.376-0.349-1.256-0.673-2.636-0.971v-1.828h10.047v1.828
			c-1.324,0.274-2.21,0.728-2.661,1.362c-0.449,0.634-1.313,2.706-2.59,6.215c-0.205,0.597-0.733,1.828-1.584,3.693l-2.53,5.448
			c1.215,2.535,2.239,4.337,3.075,5.405c0.836,1.069,1.721,1.604,2.651,1.604c0.773,0,1.429-0.362,1.965-1.083
			c0.284-0.397,0.584-1.02,0.899-1.864l0.938,0.894c-0.691,2.388-1.456,4.304-2.29,5.745c-1.559,2.687-3.386,4.028-5.479,4.028
			c-1.513,0-2.953-0.771-4.323-2.313c-0.803-0.895-1.794-2.375-2.976-4.439c-1.809,2.063-3.317,3.532-4.527,4.402
			c-2.075,1.542-4.198,2.313-6.368,2.313c-2.309,0-4.397-1.193-6.26-3.579c-1.862-2.387-2.795-5.555-2.795-9.506
			c0-4.598,1.154-8.563,3.46-11.894C244.355,27.619,246.349,25.667,249.047,23.605z M253.96,48.579c0.788,0,1.575-0.298,2.364-0.895
			c0.471-0.373,1.179-1.07,2.124-2.089l-3.141-6.914l-3.118-7.325l-2.315-5.478c-1.274,1.218-2.125,2.21-2.55,2.981
			c-0.678,1.218-1.016,2.759-1.016,4.623c0,3.106,0.799,6.399,2.397,9.877C250.303,46.84,252.056,48.579,253.96,48.579z
			 M255.732,18.721c0.965-0.521,1.681-1.105,2.147-1.751c0.825-1.119,1.238-2.621,1.238-4.51c0-1.986-0.393-4.063-1.175-6.225
			c-0.784-2.161-1.873-3.241-3.268-3.241c-0.533,0-1.02,0.224-1.458,0.67c-0.705,0.745-1.056,2-1.056,3.764
			c0,1.467,0.263,3.006,0.79,4.622C253.481,13.664,254.407,15.888,255.732,18.721z M205.115,0.606c4.856,0,8.891,2.486,12.104,7.46
			c3.306,5.099,4.959,11.665,4.959,19.697c0,8.033-1.653,14.599-4.959,19.697c-3.228,4.974-7.263,7.461-12.104,7.461
			c-5.139,0-9.331-2.724-12.574-8.169c-3.024-5.124-4.536-11.315-4.536-18.579c0-8.007,1.583-14.586,4.748-19.733
			C195.949,3.217,200.069,0.606,205.115,0.606z M205.103,52.347c3.609,0,6.088-3.395,7.438-10.184c0.721-3.68,1.082-8.48,1.082-14.4
			c0-8.132-0.765-14.263-2.293-18.392c-1.531-4.128-3.605-6.192-6.226-6.192c-3.64,0-6.135,3.444-7.484,10.334
			c-0.706,3.656-1.059,8.405-1.059,14.25c0,5.944,0.36,10.744,1.082,14.4C198.976,48.953,201.463,52.347,205.103,52.347z
			 M170.314,0.791c2.005,0,4.035,0.591,6.087,1.773c2.053,1.182,3.196,1.771,3.432,1.771c0.61,0,1.101-0.372,1.468-1.118
			c0.369-0.748,0.601-1.53,0.694-2.351h1.339v17.87h-1.223c-1.157-3.881-2.339-6.939-3.543-9.178
			c-2.254-4.128-4.804-6.192-7.653-6.192c-3.225,0-5.512,2.206-6.867,6.622c-1.354,4.414-2.03,10.339-2.03,17.775
			c0,5.472,0.398,9.973,1.197,13.505c1.486,6.615,4.249,9.924,8.288,9.924c2.471,0,4.772-1.096,6.9-3.284
			c1.221-1.268,2.661-3.295,4.321-6.081l1.433,1.866c-1.88,3.332-3.533,5.744-4.958,7.236c-2.54,2.661-5.36,3.992-8.462,3.992
			c-4.748,0-8.728-2.238-11.938-6.716c-3.557-4.948-5.335-11.613-5.335-19.994c0-8.308,1.699-15.035,5.101-20.183
			C161.759,3.205,165.677,0.791,170.314,0.791z M117.818,53.392v-1.94c1.158-0.125,2.09-0.957,2.795-2.5
			c0.455-0.97,1.105-3.108,1.951-6.416l10.694-41.819h1.339l10.741,40.141c1.206,4.502,2.107,7.404,2.703,8.709
			c0.596,1.307,1.441,1.934,2.538,1.885v1.94h-15.582v-1.94c1.566-0.099,2.596-0.311,3.089-0.634
			c0.494-0.323,0.741-1.144,0.741-2.463c0-0.597-0.126-1.504-0.376-2.723l-0.636-2.611l-1.224-4.626h-10.806l-1.364,5.932
			c-0.424,1.964-0.635,3.395-0.635,4.289c0,1.095,0.461,1.891,1.386,2.389c0.548,0.273,1.372,0.422,2.468,0.447v1.94H117.818z
			 M126.508,35.375h9.377l-4.629-17.683h-0.404L126.508,35.375z M82.971,53.392v-1.94c1.786-0.075,2.937-0.617,3.454-1.622
			c0.517-1.008,0.776-2.494,0.776-4.459V9.185c-1.473-2.611-2.382-4.147-2.727-4.606c-0.345-0.461-0.814-0.753-1.41-0.877V1.762
			h10.2l16.546,31.919h0.234V11.237c0-2.586-0.296-4.433-0.888-5.54c-0.592-1.107-1.777-1.772-3.554-1.996V1.762h10.341v1.939
			c-1.504,0.396-2.51,0.928-3.02,1.594c-0.508,0.669-0.763,2.164-0.763,4.486V54.81h-1.339L89.645,13.961h-0.33v29.956
			c0,2.35,0.205,4.011,0.612,4.986c0.642,1.575,1.957,2.423,3.947,2.549v1.94H82.971z M63.424,0.606
			c4.858,0,8.893,2.486,12.105,7.46c3.306,5.099,4.958,11.665,4.958,19.697c0,8.033-1.652,14.599-4.958,19.697
			c-3.229,4.974-7.264,7.461-12.105,7.461c-5.14,0-9.33-2.724-12.573-8.169c-3.024-5.124-4.537-11.315-4.537-18.579
			c0-8.007,1.584-14.586,4.749-19.733C54.259,3.217,58.379,0.606,63.424,0.606z M63.413,52.347c3.608,0,6.086-3.395,7.437-10.184
			c0.722-3.68,1.083-8.48,1.083-14.4c0-8.132-0.766-14.263-2.295-18.392c-1.529-4.128-3.605-6.192-6.225-6.192
			c-3.641,0-6.135,3.444-7.484,10.334c-0.707,3.656-1.06,8.405-1.06,14.25c0,5.944,0.362,10.744,1.083,14.4
			C57.286,48.953,59.772,52.347,63.413,52.347z M0,53.392v-1.94c1.834-0.025,3.024-0.541,3.573-1.548
			c0.547-1.008,0.822-2.517,0.822-4.533V9.075c0-2.075-0.313-3.44-0.939-4.095C2.829,4.325,1.715,3.9,0.119,3.701V1.762h12.126
			l9.472,35.365h0.399l9.417-35.365h12.134v1.939C42.039,3.9,40.926,4.375,40.33,5.13c-0.595,0.755-0.894,2.604-0.894,5.547v33.799
			c0,2.81,0.298,4.65,0.894,5.521c0.596,0.87,1.709,1.356,3.337,1.455v1.94H27.686v-1.94c1.426-0.075,2.5-0.454,3.219-1.137
			c0.721-0.686,1.082-2.183,1.082-4.496V8.477h-0.352L19.836,53.392h-1.291L6.628,9.372h-0.21v34.545
			c0,2.55,0.296,4.411,0.892,5.586c0.595,1.175,1.911,1.824,3.949,1.95v1.94H0z"/>
	</defs>
	<use xlink:href="#SVGID_1_"  overflow="visible" fill-rule="evenodd" clip-rule="evenodd" fill="#010202"/>
	<clipPath id="SVGID_2_">
		<use xlink:href="#SVGID_1_"  overflow="visible"/>
	</clipPath>
	<path clip-path="url(#SVGID_2_)" fill="#010202" d="M523.982,53.392v-1.94c1.16-0.125,2.092-0.957,2.797-2.5
		c0.456-0.97,1.104-3.108,1.95-6.416l10.694-41.819h1.341l10.739,40.141c1.208,4.502,2.108,7.404,2.703,8.709
		c0.595,1.307,1.44,1.934,2.539,1.885v1.94h-15.584v-1.94c1.568-0.099,2.599-0.311,3.091-0.634c0.495-0.323,0.741-1.144,0.741-2.463
		c0-0.597-0.126-1.504-0.377-2.723l-0.635-2.611l-1.225-4.626h-10.806l-1.364,5.932c-0.424,1.964-0.636,3.395-0.636,4.289
		c0,1.095,0.462,1.891,1.387,2.389c0.548,0.273,1.37,0.422,2.468,0.447v1.94H523.982z M532.674,35.375h9.378l-4.629-17.683h-0.405
		L532.674,35.375z M489.136,53.392v-1.94c1.787-0.075,2.938-0.617,3.456-1.622c0.516-1.008,0.773-2.494,0.773-4.459V9.185
		c-1.473-2.611-2.38-4.147-2.726-4.606c-0.345-0.461-0.813-0.753-1.409-0.877V1.762h10.199l16.545,31.919h0.235V11.237
		c0-2.586-0.296-4.433-0.888-5.54s-1.777-1.772-3.554-1.996V1.762h10.341v1.939c-1.505,0.396-2.51,0.928-3.02,1.594
		c-0.51,0.669-0.764,2.164-0.764,4.486V54.81h-1.34l-21.176-40.849h-0.33v29.956c0,2.35,0.204,4.011,0.611,4.986
		c0.644,1.575,1.959,2.423,3.948,2.549v1.94H489.136z M454.477,53.392v-1.94c1.16-0.125,2.092-0.957,2.799-2.5
		c0.452-0.97,1.104-3.108,1.948-6.416l10.693-41.819h1.34l10.741,40.141c1.207,4.502,2.106,7.404,2.703,8.709
		c0.596,1.307,1.441,1.934,2.538,1.885v1.94h-15.581v-1.94c1.565-0.099,2.597-0.311,3.091-0.634
		c0.493-0.323,0.739-1.144,0.739-2.463c0-0.597-0.125-1.504-0.375-2.723l-0.637-2.611l-1.225-4.626h-10.807l-1.365,5.932
		c-0.422,1.964-0.634,3.395-0.634,4.289c0,1.095,0.464,1.891,1.387,2.389c0.548,0.273,1.372,0.422,2.467,0.447v1.94H454.477z
		 M463.167,35.375h9.379l-4.63-17.683h-0.402L463.167,35.375z M428.536,54.473V35.56h1.387c0.766,5.708,2.002,9.859,3.711,12.452
		c1.708,2.591,3.665,3.888,5.872,3.888c2.145,0,3.668-0.891,4.572-2.67c0.904-1.779,1.356-3.651,1.356-5.617
		c0-2.291-0.472-4.157-1.415-5.601c-0.626-0.945-1.891-2.177-3.796-3.695l-3.064-2.464c-3.043-2.439-5.19-4.853-6.442-7.242
		c-1.25-2.389-1.875-5.339-1.875-8.848c0-3.734,0.829-7.217,2.484-10.454c1.657-3.234,4.195-4.853,7.615-4.853
		c1.741,0,3.424,0.422,5.05,1.269c1.627,0.846,2.555,1.269,2.786,1.269c0.523,0,0.885-0.243,1.085-0.728
		c0.199-0.485,0.363-1.126,0.486-1.921h1.433v16.637h-1.339c-0.628-3.853-1.733-7.174-3.319-9.959
		c-1.586-2.786-3.512-4.179-5.777-4.179c-1.594,0-2.853,0.704-3.78,2.11c-0.926,1.405-1.39,3.117-1.39,5.132
		c0,2.415,0.436,4.219,1.303,5.414c0.852,1.22,2.763,3.011,5.73,5.376l3.554,2.837c1.585,1.27,2.847,2.674,3.788,4.215
		c1.762,2.884,2.641,6.388,2.641,10.514c0,3.853-0.943,7.487-2.831,10.905c-1.888,3.417-4.913,5.125-9.076,5.125
		c-0.953,0-1.921-0.142-2.9-0.428c-0.979-0.286-1.945-0.728-2.901-1.325l-0.925-0.56c-0.214-0.1-0.424-0.179-0.624-0.242
		c-0.199-0.063-0.37-0.093-0.508-0.093c-0.493,0-0.833,0.23-1.019,0.689c-0.186,0.461-0.346,1.114-0.484,1.958H428.536z
		 M408.893,53.392v-1.94c1.362-0.05,2.342-0.311,2.937-0.784c0.972-0.796,1.458-2.324,1.458-4.589V9.075
		c0-2.248-0.462-3.755-1.387-4.521c-0.564-0.468-1.567-0.752-3.008-0.852V1.762h16.828v1.939c-1.505,0.1-2.54,0.37-3.104,0.815
		c-0.941,0.767-1.411,2.285-1.411,4.559V46.08c0,2.139,0.378,3.569,1.13,4.291c0.751,0.721,1.88,1.082,3.385,1.082v1.94H408.893z
		 M383.045,54.473V35.56h1.386c0.766,5.708,2.003,9.859,3.712,12.452c1.709,2.591,3.665,3.888,5.872,3.888
		c2.145,0,3.668-0.891,4.572-2.67c0.904-1.779,1.355-3.651,1.355-5.617c0-2.291-0.472-4.157-1.415-5.601
		c-0.625-0.945-1.89-2.177-3.794-3.695l-3.066-2.464c-3.043-2.439-5.19-4.853-6.44-7.242c-1.251-2.389-1.877-5.339-1.877-8.848
		c0-3.734,0.83-7.217,2.485-10.454c1.656-3.234,4.194-4.853,7.615-4.853c1.74,0,3.423,0.422,5.051,1.269
		c1.625,0.846,2.553,1.269,2.784,1.269c0.524,0,0.886-0.243,1.086-0.728c0.201-0.485,0.362-1.126,0.485-1.921h1.433v16.637h-1.338
		c-0.627-3.853-1.733-7.174-3.319-9.959c-1.586-2.786-3.512-4.179-5.778-4.179c-1.592,0-2.852,0.704-3.779,2.11
		c-0.926,1.405-1.389,3.117-1.389,5.132c0,2.415,0.434,4.219,1.302,5.414c0.853,1.22,2.764,3.011,5.731,5.376l3.553,2.837
		c1.584,1.27,2.846,2.674,3.788,4.215c1.761,2.884,2.641,6.388,2.641,10.514c0,3.853-0.943,7.487-2.832,10.905
		c-1.887,3.417-4.912,5.125-9.074,5.125c-0.954,0-1.923-0.142-2.902-0.428c-0.977-0.286-1.944-0.728-2.901-1.325l-0.924-0.56
		c-0.215-0.1-0.423-0.179-0.624-0.242c-0.2-0.063-0.37-0.093-0.508-0.093c-0.493,0-0.832,0.23-1.018,0.689
		c-0.185,0.461-0.347,1.114-0.486,1.958H383.045z M363.4,53.392v-1.94c1.363-0.05,2.343-0.311,2.938-0.784
		c0.971-0.796,1.457-2.324,1.457-4.589V9.075c0-2.248-0.462-3.755-1.386-4.521c-0.564-0.468-1.567-0.752-3.009-0.852V1.762h16.828
		v1.939c-1.505,0.1-2.537,0.37-3.104,0.815c-0.94,0.767-1.409,2.285-1.409,4.559V46.08c0,2.139,0.376,3.569,1.129,4.291
		c0.751,0.721,1.879,1.082,3.384,1.082v1.94H363.4z M328.646,1.762h16.265v1.939c-1.865,0.1-3.111,0.558-3.737,1.374
		c-0.627,0.816-0.939,2.684-0.939,5.602v25.602c0,3.888,0.291,6.89,0.869,9.007c1.05,3.937,3.063,5.906,6.04,5.906
		c3.698,0,6.196-2.179,7.497-6.535c0.721-2.39,1.082-5.739,1.082-10.046V11.237c0-2.735-0.316-4.619-0.953-5.65
		c-0.634-1.033-1.876-1.661-3.725-1.885V1.762h10.576v1.939c-1.535,0.473-2.55,1.05-3.043,1.735
		c-0.494,0.685-0.741,2.257-0.741,4.719V34.59c0,6.491-0.987,11.503-2.961,15.034c-1.975,3.532-5.075,5.297-9.308,5.297
		c-5.529,0-9.314-2.626-11.352-7.877c-1.08-2.789-1.621-6.384-1.621-10.791V10.677c0-2.868-0.238-4.674-0.716-5.417
		s-1.556-1.261-3.233-1.559V1.762z M309.101,0.606c4.857,0,8.893,2.486,12.104,7.46c3.305,5.099,4.959,11.665,4.959,19.697
		c0,8.854-1.967,15.855-5.899,21.003c-1.505,2.089-3.611,3.818-6.322,5.186c0.689,2.735,1.798,4.98,3.325,6.733
		c1.528,1.753,3.201,2.63,5.019,2.63c0.626,0,1.156-0.068,1.586-0.205c0.431-0.138,0.983-0.368,1.658-0.69l0.28,1.865
		c-1.613,1.044-3.392,1.79-5.335,2.237c-1.237,0.299-2.364,0.448-3.384,0.448c-2.711,0-5.363-1.068-7.956-3.208
		c-2.593-2.138-4.39-5.235-5.393-9.289c-0.126-0.521-0.22-0.833-0.284-0.932c-0.062-0.099-0.288-0.249-0.68-0.448
		c-2.037-1.169-3.965-3.06-5.781-5.67c-3.338-5.149-5.007-11.602-5.007-19.361c0-7.859,1.559-14.363,4.676-19.512
		C299.865,3.254,304.009,0.606,309.101,0.606z M309.089,52.347c3.609,0,6.088-3.395,7.438-10.184c0.722-3.68,1.08-8.48,1.08-14.4
		c0-8.132-0.764-14.263-2.293-18.392c-1.53-4.128-3.604-6.192-6.226-6.192c-3.64,0-6.135,3.444-7.484,10.334
		c-0.705,3.656-1.058,8.405-1.058,14.25c0,5.944,0.36,10.744,1.081,14.4C302.962,48.953,305.449,52.347,309.089,52.347z
		 M249.047,23.605c-0.929-2.51-1.583-4.56-1.961-6.15c-0.377-1.589-0.565-3.23-0.565-4.921c0-3.479,0.806-6.363,2.421-8.649
		c1.614-2.286,3.979-3.429,7.098-3.429c2.586,0,4.552,0.919,5.898,2.759c1.348,1.839,2.021,4.013,2.021,6.522
		c0,2.561-0.652,4.753-1.954,6.58c-1.305,1.825-3.072,3.372-5.304,4.642l7.284,16.325c1.331-2.738,2.205-4.679,2.623-5.823
		c0.672-1.817,1.01-3.498,1.01-5.039c0-1.269-0.188-2.078-0.565-2.426c-0.376-0.349-1.256-0.673-2.636-0.971v-1.828h10.047v1.828
		c-1.324,0.274-2.21,0.728-2.661,1.362c-0.449,0.634-1.313,2.706-2.59,6.215c-0.205,0.597-0.733,1.828-1.584,3.693l-2.53,5.448
		c1.215,2.535,2.239,4.337,3.075,5.405c0.836,1.069,1.721,1.604,2.651,1.604c0.773,0,1.429-0.362,1.965-1.083
		c0.284-0.397,0.584-1.02,0.899-1.864l0.938,0.894c-0.691,2.388-1.456,4.304-2.29,5.745c-1.559,2.687-3.386,4.028-5.479,4.028
		c-1.513,0-2.953-0.771-4.323-2.313c-0.803-0.895-1.794-2.375-2.976-4.439c-1.809,2.063-3.317,3.532-4.527,4.402
		c-2.075,1.542-4.198,2.313-6.368,2.313c-2.309,0-4.397-1.193-6.26-3.579c-1.862-2.387-2.795-5.555-2.795-9.506
		c0-4.598,1.154-8.563,3.46-11.894C244.355,27.619,246.349,25.667,249.047,23.605z M253.96,48.579c0.788,0,1.575-0.298,2.364-0.895
		c0.471-0.373,1.179-1.07,2.124-2.089l-3.141-6.914l-3.118-7.325l-2.315-5.478c-1.274,1.218-2.125,2.21-2.55,2.981
		c-0.678,1.218-1.016,2.759-1.016,4.623c0,3.106,0.799,6.399,2.397,9.877C250.303,46.84,252.056,48.579,253.96,48.579z
		 M255.732,18.721c0.965-0.521,1.681-1.105,2.147-1.751c0.825-1.119,1.238-2.621,1.238-4.51c0-1.986-0.393-4.063-1.175-6.225
		c-0.784-2.161-1.873-3.241-3.268-3.241c-0.533,0-1.02,0.224-1.458,0.67c-0.705,0.745-1.056,2-1.056,3.764
		c0,1.467,0.263,3.006,0.79,4.622C253.481,13.664,254.407,15.888,255.732,18.721z M205.115,0.606c4.856,0,8.891,2.486,12.104,7.46
		c3.306,5.099,4.959,11.665,4.959,19.697c0,8.033-1.653,14.599-4.959,19.697c-3.228,4.974-7.263,7.461-12.104,7.461
		c-5.139,0-9.331-2.724-12.574-8.169c-3.024-5.124-4.536-11.315-4.536-18.579c0-8.007,1.583-14.586,4.748-19.733
		C195.949,3.217,200.069,0.606,205.115,0.606z M205.103,52.347c3.609,0,6.088-3.395,7.438-10.184c0.721-3.68,1.082-8.48,1.082-14.4
		c0-8.132-0.765-14.263-2.293-18.392c-1.531-4.128-3.605-6.192-6.226-6.192c-3.64,0-6.135,3.444-7.484,10.334
		c-0.706,3.656-1.059,8.405-1.059,14.25c0,5.944,0.36,10.744,1.082,14.4C198.976,48.953,201.463,52.347,205.103,52.347z
		 M170.314,0.791c2.005,0,4.035,0.591,6.087,1.773c2.053,1.182,3.196,1.771,3.432,1.771c0.61,0,1.101-0.372,1.468-1.118
		c0.369-0.748,0.601-1.53,0.694-2.351h1.339v17.87h-1.223c-1.157-3.881-2.339-6.939-3.543-9.178
		c-2.254-4.128-4.804-6.192-7.653-6.192c-3.225,0-5.512,2.206-6.867,6.622c-1.354,4.414-2.03,10.339-2.03,17.775
		c0,5.472,0.398,9.973,1.197,13.505c1.486,6.615,4.249,9.924,8.288,9.924c2.471,0,4.772-1.096,6.9-3.284
		c1.221-1.268,2.661-3.295,4.321-6.081l1.433,1.866c-1.88,3.332-3.533,5.744-4.958,7.236c-2.54,2.661-5.36,3.992-8.462,3.992
		c-4.748,0-8.728-2.238-11.938-6.716c-3.557-4.948-5.335-11.613-5.335-19.994c0-8.308,1.699-15.035,5.101-20.183
		C161.759,3.205,165.677,0.791,170.314,0.791z M117.818,53.392v-1.94c1.158-0.125,2.09-0.957,2.795-2.5
		c0.455-0.97,1.105-3.108,1.951-6.416l10.694-41.819h1.339l10.741,40.141c1.206,4.502,2.107,7.404,2.703,8.709
		c0.596,1.307,1.441,1.934,2.538,1.885v1.94h-15.582v-1.94c1.566-0.099,2.596-0.311,3.089-0.634
		c0.494-0.323,0.741-1.144,0.741-2.463c0-0.597-0.126-1.504-0.376-2.723l-0.636-2.611l-1.224-4.626h-10.806l-1.364,5.932
		c-0.424,1.964-0.635,3.395-0.635,4.289c0,1.095,0.461,1.891,1.386,2.389c0.548,0.273,1.372,0.422,2.468,0.447v1.94H117.818z
		 M126.508,35.375h9.377l-4.629-17.683h-0.404L126.508,35.375z M82.971,53.392v-1.94c1.786-0.075,2.937-0.617,3.454-1.622
		c0.517-1.008,0.776-2.494,0.776-4.459V9.185c-1.473-2.611-2.382-4.147-2.727-4.606c-0.345-0.461-0.814-0.753-1.41-0.877V1.762h10.2
		l16.546,31.919h0.234V11.237c0-2.586-0.296-4.433-0.888-5.54c-0.592-1.107-1.777-1.772-3.554-1.996V1.762h10.341v1.939
		c-1.504,0.396-2.51,0.928-3.02,1.594c-0.508,0.669-0.763,2.164-0.763,4.486V54.81h-1.339L89.645,13.961h-0.33v29.956
		c0,2.35,0.205,4.011,0.612,4.986c0.642,1.575,1.957,2.423,3.947,2.549v1.94H82.971z M63.424,0.606c4.858,0,8.893,2.486,12.105,7.46
		c3.306,5.099,4.958,11.665,4.958,19.697c0,8.033-1.652,14.599-4.958,19.697c-3.229,4.974-7.264,7.461-12.105,7.461
		c-5.14,0-9.33-2.724-12.573-8.169c-3.024-5.124-4.537-11.315-4.537-18.579c0-8.007,1.584-14.586,4.749-19.733
		C54.259,3.217,58.379,0.606,63.424,0.606z M63.413,52.347c3.608,0,6.086-3.395,7.437-10.184c0.722-3.68,1.083-8.48,1.083-14.4
		c0-8.132-0.766-14.263-2.295-18.392c-1.529-4.128-3.605-6.192-6.225-6.192c-3.641,0-6.135,3.444-7.484,10.334
		c-0.707,3.656-1.06,8.405-1.06,14.25c0,5.944,0.362,10.744,1.083,14.4C57.286,48.953,59.772,52.347,63.413,52.347z M0,53.392v-1.94
		c1.834-0.025,3.024-0.541,3.573-1.548c0.547-1.008,0.822-2.517,0.822-4.533V9.075c0-2.075-0.313-3.44-0.939-4.095
		C2.829,4.325,1.715,3.9,0.119,3.701V1.762h12.126l9.472,35.365h0.399l9.417-35.365h12.134v1.939
		C42.039,3.9,40.926,4.375,40.33,5.13c-0.595,0.755-0.894,2.604-0.894,5.547v33.799c0,2.81,0.298,4.65,0.894,5.521
		c0.596,0.87,1.709,1.356,3.337,1.455v1.94H27.686v-1.94c1.426-0.075,2.5-0.454,3.219-1.137c0.721-0.686,1.082-2.183,1.082-4.496
		V8.477h-0.352L19.836,53.392h-1.291L6.628,9.372h-0.21v34.545c0,2.55,0.296,4.411,0.892,5.586c0.595,1.175,1.911,1.824,3.949,1.95
		v1.94H0z"/>
</g>
<g>
	<defs>
		<path id="SVGID_3_" d="M208.237,126.941h4.61v0.046l-3.715,2.759l1.446,4.928l-0.023,0.05l-3.695-3.276l-3.672,3.276l-0.046-0.05
			l1.469-4.928l-3.764-2.759v-0.046h4.613l1.377-4.323h0.046 M194.642,126.941h4.61v0.046l-3.715,2.759l1.445,4.928l-0.023,0.05
			l-3.694-3.276l-3.672,3.276l-0.046-0.05l1.469-4.928l-3.764-2.759v-0.046h4.613l1.377-4.323h0.046L194.642,126.941z
			 M181.046,126.941h4.611v0.046l-3.716,2.759l1.446,4.928l-0.023,0.05l-3.695-3.276l-3.672,3.276l-0.045-0.05l1.468-4.928
			l-3.763-2.759v-0.046h4.612l1.377-4.323h0.046L181.046,126.941z M167.451,126.941h4.61v0.046l-3.715,2.759l1.446,4.928
			l-0.023,0.05l-3.695-3.276l-3.672,3.276l-0.046-0.05l1.469-4.928l-3.764-2.759v-0.046h4.613l1.377-4.323h0.046L167.451,126.941z"
			/>
	</defs>
	<use xlink:href="#SVGID_3_"  overflow="visible" fill-rule="evenodd" clip-rule="evenodd" fill="#A9A9A9"/>
	<clipPath id="SVGID_4_">
		<use xlink:href="#SVGID_3_"  overflow="visible"/>
	</clipPath>
	<path clip-path="url(#SVGID_4_)" fill="#A9A9A9" d="M208.237,126.941h4.61v0.046l-3.715,2.759l1.446,4.928l-0.023,0.05
		l-3.695-3.276l-3.672,3.276l-0.046-0.05l1.469-4.928l-3.764-2.759v-0.046h4.613l1.377-4.323h0.046L208.237,126.941z
		 M194.642,126.941h4.61v0.046l-3.715,2.759l1.445,4.928l-0.023,0.05l-3.694-3.276l-3.672,3.276l-0.046-0.05l1.469-4.928
		l-3.764-2.759v-0.046h4.613l1.377-4.323h0.046L194.642,126.941z M181.046,126.941h4.611v0.046l-3.716,2.759l1.446,4.928
		l-0.023,0.05l-3.695-3.276l-3.672,3.276l-0.045-0.05l1.468-4.928l-3.763-2.759v-0.046h4.612l1.377-4.323h0.046L181.046,126.941z
		 M167.451,126.941h4.61v0.046l-3.715,2.759l1.446,4.928l-0.023,0.05l-3.695-3.276l-3.672,3.276l-0.046-0.05l1.469-4.928
		l-3.764-2.759v-0.046h4.613l1.377-4.323h0.046L167.451,126.941z"/>
</g>
</svg>
